<?xml version="1.0" standalone="no"?>
<!DOCTYPE svg PUBLIC "-//W3C//DTD SVG 20010904//EN"
 "http://www.w3.org/TR/2001/REC-SVG-20010904/DTD/svg10.dtd">
<svg version="1.0" xmlns="http://www.w3.org/2000/svg"
 width="32.000000pt" height="32.000000pt" viewBox="0 0 32.000000 32.000000"
 preserveAspectRatio="xMidYMid meet">

<g transform="translate(0.000000,32.000000) scale(0.100000,-0.100000)"
fill="#000000" stroke="none">
<path d="M67 174 c-11 -11 -8 -21 6 -22 6 0 30 -4 51 -8 31 -6 37 -4 31 6 -6
9 -4 11 4 5 22 -13 71 -12 71 1 0 10 -20 13 -75 11 -41 -1 -76 2 -78 6 -1 5
-6 5 -10 1z"/>
<path d="M247 174 c-4 -4 -7 -14 -7 -23 0 -11 3 -12 11 -4 6 6 10 16 7 23 -2
6 -7 8 -11 4z"/>
<path d="M120 116 c0 -7 12 -13 30 -13 37 0 34 21 -3 24 -16 1 -27 -3 -27 -11z"/>
<path d="M191 114 c0 -11 3 -14 6 -6 3 7 2 16 -1 19 -3 4 -6 -2 -5 -13z"/>
</g>
</svg>
